<?xml version="1.0" encoding="UTF-8"?>
<svg id="Layer_1" xmlns="http://www.w3.org/2000/svg" version="1.1" viewBox="0 0 19.5 13">
  <!-- Generator: Adobe Illustrator 30.2.1, SVG Export Plug-In . SVG Version: 2.1.1 Build 1)  -->
  <path d="M14.444,5.814c-.072-2.239-.65-3.864-1.444-4.442,2.744.072,4.767,1.986,5.056,4.442h-3.611ZM6.5,5.814c.072-3.033.867-4.442,2.456-4.442h1.589c1.589,0,2.383,1.408,2.456,4.442h-6.5ZM13,11.628c.794-.578,1.372-2.203,1.444-4.442h3.611c-.289,2.456-2.311,4.369-5.056,4.442ZM1.444,5.814C1.733,3.358,3.756,1.444,6.5,1.372c-.794.578-1.372,2.203-1.444,4.442H1.444ZM8.956,11.628c-1.589,0-2.383-1.408-2.456-4.442h6.5c-.072,3.033-.867,4.442-2.456,4.442h-1.589ZM6.5,11.628c-2.744-.072-4.767-1.986-5.056-4.442h3.611c.072,2.239.65,3.864,1.444,4.442ZM6.789,13h5.922c3.864,0,6.789-2.781,6.789-6.5S16.575,0,12.711,0h-5.922C2.925,0,0,2.781,0,6.5s2.925,6.5,6.789,6.5Z" fill="#fff"/>
</svg>
