<?xml version="1.0" encoding="UTF-8"?>
<svg id="Layer_1" xmlns="http://www.w3.org/2000/svg" version="1.1" viewBox="0 0 39 26">
  <!-- Generator: Adobe Illustrator 30.2.1, SVG Export Plug-In . SVG Version: 2.1.1 Build 1)  -->
  <path d="M28.889,11.628c-.144-4.478-1.3-7.728-2.889-8.883,5.489.144,9.533,3.972,10.111,8.883h-7.222ZM13,11.628c.144-6.067,1.733-8.883,4.911-8.883h3.178c3.178,0,4.767,2.817,4.911,8.883h-13ZM26,23.256c1.589-1.156,2.744-4.406,2.889-8.883h7.222c-.578,4.911-4.622,8.739-10.111,8.883ZM2.889,11.628C3.467,6.717,7.511,2.889,13,2.744c-1.589,1.156-2.744,4.406-2.889,8.883H2.889ZM17.911,23.256c-3.178,0-4.767-2.817-4.911-8.883h13c-.144,6.067-1.733,8.883-4.911,8.883h-3.178ZM13,23.256c-5.489-.144-9.533-3.972-10.111-8.883h7.222c.144,4.478,1.3,7.728,2.889,8.883ZM13.578,26h11.844c7.728,0,13.578-5.561,13.578-13S33.15,0,25.422,0h-11.844C5.85,0,0,5.561,0,13s5.85,13,13.578,13Z" fill="#fff"/>
</svg>